<?xml version="1.0" encoding="UTF-8"?>
<svg width="116px" height="107px" viewBox="0 0 116 107" version="1.1" xmlns="http://www.w3.org/2000/svg" xmlns:xlink="http://www.w3.org/1999/xlink">
    <!-- Generator: Sketch 52.2 (67145) - http://www.bohemiancoding.com/sketch -->
    <title>felix</title>
    <desc>Created with Sketch.</desc>
    <g id="felix" stroke="none" stroke-width="1" fill="none" fill-rule="evenodd">
        <path d="M30.5400593,38.7128713 C40.0356083,26.9471947 44.5914766,10.5709237 49.7307122,0.275758045 L57.8545994,16.002862 C66.9163971,15.7165382 69.1884273,15.2141347 77.3063798,17.0006317 C85.4243323,18.7871287 86.3855317,20.4591614 92.8256677,24.52171 L108.075668,14.9917492 C107.958317,30.0086053 108.343085,40.6764386 109.22997,46.9952493 C110.116856,53.31406 111.252226,60.7260726 115.810089,69.8349835 L109.22997,75.4235316 L114.645401,75.4235316 C110.051748,79.0142413 106.606644,81.8605288 104.310089,83.9623943 C102.013534,86.0642597 99.8816211,89.6902644 94.9458457,93.453067 C90.0100703,97.2158696 86.2029486,99.6233164 83.5244807,100.675407 C77.5595488,103.018408 70.4824782,103.679305 67.3256677,103.696885 C64.5341246,103.712432 61.2871393,103.430808 56.1780415,102.665017 C52.379822,102.09571 44.7537488,99.4551557 35.9287834,94.8844884 C29.55184,91.5817122 24.2662861,86.991992 21.2344214,83.9623943 C18.2875865,81.0177629 14.4260633,74.8537305 9.64985163,65.470297 L13.8278932,65.470297 L7.56083086,58.2590759 C16.5499505,53.0720572 24.2096934,46.5566557 30.5400593,38.7128713 Z" id="Shape" fill="#000000" fill-rule="nonzero"></path>
        <path d="" id="Path-9" stroke="#979797" fill-rule="nonzero"></path>
        <path d="M57.8872404,72.9809903 C60.8859735,71.692177 64.3442136,70.2145215 67.9525223,66.6089109 C71.5608309,63.0033003 74.4802316,54.6197339 78.2077151,50.6683168 C81.9351987,46.7168998 84.3393733,44.8713157 88.272997,44.0264026 C92.2066208,43.1814896 96.1833412,43.889532 98.5281899,46.3036304 C100.873039,48.7177287 102.029487,50.8229719 102.326409,56.3613861 C102.623332,61.8998004 101.505856,64.1178823 99.6676558,67.5577558 C98.442189,69.8510047 95.846739,72.6342831 91.8813056,75.9075908 C90.4810225,77.0481039 89.2782529,77.7439234 88.272997,77.9950495 C87.2677411,78.2461756 85.5585423,78.2461756 83.1454006,77.9950495 C85.1711177,79.639714 87.5766568,80.0192519 90.3620178,79.1336634 C92.1206749,78.5745091 96.9500139,75.933353 99.6676558,74.7689769 C101.254215,74.0892142 102.082151,73.5327326 103.275964,74.009901 C104.469778,74.4870694 104.605341,76.0973597 104.41543,77.6155116 C104.288823,78.6276128 103.592483,80.2090209 102.326409,82.359736 C97.0151842,89.4792604 92.0774988,94.2234849 87.5133531,96.5924092 C80.6671346,100.145796 72.9010189,100.96205 65.1038576,101.336634 C57.3066963,101.711217 48.2017804,97.5412541 39.2759644,91.8481848 C30.3501484,86.1551155 28.4510386,85.0165017 23.8931751,79.1336634 C19.3353116,73.2508251 18.9554896,67.5577558 20.6646884,61.1056106 C22.5637982,54.779978 27.3115727,49.8459846 34.9080119,46.3036304 C48.2283421,64.9477459 55.8880849,73.8401992 57.8872404,72.9809903 Z" id="Path-10" fill="#FFFFFF" fill-rule="nonzero"></path>
        <path d="M61.6454006,23.9108911 C66.3931751,25.049505 69.0919881,29.4141914 70.611276,32.640264 C72.1305638,35.8663366 70.611276,44.7854785 69.5593472,52.3762376 C68.6147379,59.7139714 65.9767557,65.6479584 61.6454006,70.1781985 C58.8867458,72.6061542 56.1780415,73.820132 53.5192878,73.820132 C47.4421365,73.820132 40.0356083,68.1270627 37.3768546,63.5726073 C34.7181009,59.0181518 33.0816024,50.6683168 35.134273,44.7854785 C36.9970326,39.0924092 39.2759644,32.640264 45.5430267,28.2755776 C50.5464268,24.7774533 56.8976261,22.7722772 61.6454006,23.9108911 Z" id="Path-4" stroke="#000000" fill="#FFFFFF" fill-rule="nonzero"></path>
        <path d="M50.4094955,63.0114545 C52.7981726,63.4187957 54.1407806,62.4929673 55.4762611,61.1056106 C56.8117417,59.7182538 57.5097102,58.5156371 58.1795252,55.4214367 C58.8493402,52.3272362 58.851831,50.2909519 58.1795252,48.6179223 C57.5072195,46.9448928 56.7693198,45.5977884 54.2945104,45.2717616 C51.819701,44.9457347 50.826494,45.6571516 49.0919881,47.420747 C47.9356509,48.5964772 47.131002,50.4615504 46.6780415,53.0159666 C46.2115126,56.1591257 46.2115126,58.3555533 46.6780415,59.6052496 C47.3778349,61.479794 48.0208185,62.6041132 50.4094955,63.0114545 Z" id="Path-2" fill="#000000" fill-rule="nonzero"></path>
        <path d="M64.1643897,85.2068408 C70.5815041,85.538345 75.3499143,81.9483843 75.350413,79.432885 C75.3509117,76.9173857 72.1115276,73.6494574 65.6164738,73.735135 C59.1214201,73.8208127 55.5043767,76.9323425 55.503878,79.4478418 C55.5033793,81.9633411 57.7472753,84.8753366 64.1643897,85.2068408 Z" id="Oval" fill="#000000" fill-rule="nonzero" transform="translate(65.427145, 79.480868) rotate(16.000000) translate(-65.427145, -79.480868) "></path>
        <path d="M72.8902077,66.4191419 C75.1517651,64.2946588 76.6710529,62.9030197 77.4480712,62.2442244 C78.6135986,61.2560315 81.8793274,59.5874587 83.5252226,59.5874587 C84.2086574,59.5874587 86.4500182,59.5775724 89.0326409,61.2953795 C90.0751819,61.9888158 91.7843807,63.5702239 94.1602374,66.039604" id="Path-11" stroke="#000000" stroke-width="2" stroke-linecap="round" fill-rule="nonzero"></path>
        <path d="M88.0830861,65.470297 C86.0607486,63.5628349 84.4465052,62.3609648 83.2403561,61.8646865 C82.0342069,61.3684082 80.7364819,61.1153829 79.347181,61.1056106" id="Path-12" stroke="#000000" stroke-width="2" stroke-linecap="round" fill-rule="nonzero"></path>
        <path d="M76.6884273,95.0742574 C78.0132513,93.8446254 78.9628062,92.8325242 79.537092,92.0379538 C80.3985207,90.8460982 81.1581646,89.5709571 81.6261128,88.2425743 C82.0940609,86.9141914 83.1454006,83.3085809 86.3738872,83.3085809 C89.6023739,83.3085809 89.6023739,84.9810976 89.6023739,87.2937294 C89.6023739,89.6063611 87.7150188,90.8318379 86.3738872,92.0379538 C85.4797996,92.842031 84.0238154,93.5378506 82.0059347,94.1254125 L76.6884273,95.0742574 Z" id="Path-13" stroke="#000000" stroke-width="2" stroke-linejoin="round" fill-rule="nonzero"></path>
        <path d="M70.611276,95.0742574 C72.8269041,95.4537954 74.5994065,95.5170517 75.9287834,95.2640264 C77.2581602,95.0110011 77.7012859,94.8844884 77.2581602,94.8844884" id="Path-14" stroke="#000000" stroke-width="2" stroke-linecap="round" fill-rule="nonzero"></path>
        <path d="M82.5756677,93.9356436 C83.6304483,92.8622707 84.3267885,91.9766821 84.6646884,91.2788779 C85.0025883,90.5810736 85.2558029,89.5057161 85.4243323,88.0528053" id="Path-15" stroke="#000000" stroke-width="2" stroke-linecap="round" fill-rule="nonzero"></path>
        <g id="Group" transform="translate(-0.465875, 35.369637)" fill-rule="nonzero" stroke="#FFFFFF" stroke-width="2">
            <path d="M45.6224036,65.7890496 C44.6828558,67.0320591 43.0933405,68.2077372 40.8538576,69.316084 C34.4669473,72.2792395 30.0824271,72.2855308 26.9673591,72.130363 C23.852291,71.9751953 15.8991098,69.6452145 14.2166172,68.5066007 C13.0949555,67.7475248 12.1543027,66.8416744 11.3946588,65.7890496 C10.3438839,65.6373333 9.23458622,65.2007164 8.06676558,64.4791989 C6.31503462,63.3969227 4.92556874,61.7678252 3.89836795,59.5919065 C2.87116716,57.4159877 2.49431256,54.6601369 2.76780415,51.3243541 C0.341493571,47.8037442 -0.451780415,44.2028285 0.387982196,40.5216068 C1.22774481,36.8403852 3.78733927,33.313598 8.06676558,29.9412451 C9.15480197,27.6524449 9.54550425,25.7564848 9.2388724,24.2533648 C8.93224056,22.7502448 7.6656728,20.3526818 5.43916914,17.0606758 C4.41196835,15.0774911 3.89836795,13.547973 3.89836795,12.4721212 C3.89836795,11.3962695 4.60682493,5.69306931 8.06676558,2.84653465 C11.5267062,-2.84217094e-14 14.4754369,-2.84217094e-14 15.5727003,-2.84217094e-14 C16.1212011,-2.84217094e-14 19.4157978,0.545437549 22.0296736,2.31501991 C24.6447973,4.08544712 26.5791621,7.08032231 26.9673591,8.34983498 C27.4852665,10.0435375 29.0396853,14.1389641 28.8664688,17.4587459 C28.8088756,18.562551 28.175839,19.8909338 26.9673591,21.4438944 C31.6516449,21.7033554 34.8801316,22.0828934 36.652819,22.5825083 C38.4255064,23.0821231 40.1347052,24.0942244 41.7804154,25.6188119 C43.5493726,27.3291432 44.6255348,28.657526 45.0089021,29.6039604 C45.3922693,30.5503948 45.3922693,32.1318029 45.0089021,34.3481848 C46.9610587,35.772653 48.1638282,36.8480105 48.6172107,37.5742574 C50.0271022,39.8326803 49.6692246,41.985657 49.7566766,43.2673267 C49.8863118,45.1672213 48.6835422,47.5077053 46.148368,50.2887789 C47.4757139,51.9171553 47.9188396,52.8660002 48.2373887,53.8943894 C48.5559379,54.9227787 48.3251752,60.8787272 47.8575668,62.0544554 C47.503793,62.9439641 46.7587386,64.1888288 45.6224036,65.7890496 Z" id="Path-5" fill="#000000"></path>
            <path d="M7.97626113,29.9834983 C11.935238,27.1516295 15.100421,25.1906834 17.4718101,24.1006601 C19.8431992,23.0106367 23.0083822,22.1250482 26.9673591,21.4438944" id="Path-6"></path>
            <path d="M24.4985163,38.5231023 C30.3082369,35.8550418 34.4862784,34.2736337 37.0326409,33.7788779 C39.5790035,33.2841221 42.2377572,33.473891 45.0089021,34.3481848" id="Path-7" stroke-linecap="round"></path>
            <path d="M27.15727,58.2590759 C31.7486255,57.9885338 35.1037194,57.4192269 37.2225519,56.5511551 C39.3413844,55.6830834 42.3166564,53.5956246 46.148368,50.2887789" id="Path-8" stroke-linecap="round"></path>
        </g>
        <g id="Group-2" transform="translate(33.958457, 23.531353)"></g>
    </g>
</svg>